<?xml version="1.0" encoding="UTF-8" standalone="no"?>
<!-- Created with Inkscape (http://www.inkscape.org/) -->

<svg
   width="26.000011mm"
   height="17.999998mm"
   viewBox="0 0 26.000011 17.999998"
   version="1.1"
   id="svg1"
   xmlns="http://www.w3.org/2000/svg"
   xmlns:svg="http://www.w3.org/2000/svg">
  <defs
     id="defs1">
    <linearGradient
       id="swatch2">
      <stop
         style="stop-color:#87cdde;stop-opacity:1;"
         offset="0"
         id="stop2" />
    </linearGradient>
  </defs>
  <g
     id="g6"
     style="display:inline"
     transform="translate(-163.99999,-47.999999)">
    <rect
       style="fill:#d38d5f;stroke:none;stroke-width:0.264583;stroke-opacity:0"
       id="rect2-6-55-20-7-0"
       width="1.9999999"
       height="1.9999999"
       x="186"
       y="56"
       rx="4.7961619e-15" />
    <rect
       style="fill:#d38d5f;stroke:none;stroke-width:0.264583;stroke-opacity:0"
       id="rect2-6-55-20-9-3"
       width="1.9999999"
       height="1.9999999"
       x="184"
       y="58"
       rx="4.7961619e-15" />
    <rect
       style="fill:#d38d5f;stroke:none;stroke-width:0.264583;stroke-opacity:0"
       id="rect2-6-55-20-5-4"
       width="1.9999999"
       height="1.9999999"
       x="182"
       y="60"
       rx="4.7961619e-15" />
    <rect
       style="fill:#d38d5f;stroke:none;stroke-width:0.264583;stroke-opacity:0"
       id="rect2-6-55-20-98-4"
       width="1.9999999"
       height="1.9999999"
       x="180"
       y="60"
       rx="4.7961619e-15" />
    <rect
       style="fill:#d38d5f;stroke:none;stroke-width:0.264583;stroke-opacity:0"
       id="rect2-6-55-20-531-6"
       width="1.9999999"
       height="1.9999999"
       x="176.00002"
       y="51.999996"
       rx="4.7961619e-15" />
    <rect
       style="fill:#d38d5f;stroke:none;stroke-width:0.264583;stroke-opacity:0"
       id="rect2-6-55-20-17-7"
       width="1.9999999"
       height="1.9999999"
       x="176.00002"
       y="49.999996"
       rx="4.7961619e-15" />
    <rect
       style="fill:#d38d5f;stroke:none;stroke-width:0.264583;stroke-opacity:0"
       id="rect2-6-55-20-09-1"
       width="1.9999999"
       height="1.9999999"
       x="178.00002"
       y="49.999996"
       rx="4.7961619e-15" />
    <rect
       style="fill:#d38d5f;stroke:none;stroke-width:0.264583;stroke-opacity:0"
       id="rect2-6-55-20-72-8"
       width="1.9999999"
       height="1.9999999"
       x="178.00002"
       y="51.999996"
       rx="4.7961619e-15" />
    <rect
       style="fill:#d38d5f;stroke:none;stroke-width:0.264583;stroke-opacity:0"
       id="rect2-6-55-20-01-1"
       width="1.9999999"
       height="1.9999999"
       x="180.00002"
       y="49.999996"
       rx="4.7961619e-15" />
    <rect
       style="fill:#d38d5f;stroke:none;stroke-width:0.264583;stroke-opacity:0"
       id="rect2-6-55-20-18-2"
       width="1.9999999"
       height="1.9999999"
       x="180.00002"
       y="51.999996"
       rx="4.7961619e-15" />
    <rect
       style="fill:#d38d5f;stroke:none;stroke-width:0.264583;stroke-opacity:0"
       id="rect2-6-55-20-69-1"
       width="1.9999999"
       height="1.9999999"
       x="182.00002"
       y="51.999996"
       rx="4.7961619e-15" />
    <rect
       style="fill:#d38d5f;stroke:none;stroke-width:0.264583;stroke-opacity:0"
       id="rect2-6-55-20-1-2"
       width="1.9999999"
       height="1.9999999"
       x="180"
       y="62"
       rx="4.7961619e-15" />
    <rect
       style="fill:#d38d5f;stroke:none;stroke-width:0.264583;stroke-opacity:0"
       id="rect2-6-55-20-94-3"
       width="1.9999999"
       height="1.9999999"
       x="178"
       y="62"
       rx="4.7961619e-15" />
    <rect
       style="fill:#d38d5f;stroke:none;stroke-width:0.264583;stroke-opacity:0"
       id="rect2-6-55-20-39-1"
       width="1.9999999"
       height="1.9999999"
       x="176"
       y="62"
       rx="4.7961619e-15" />
    <rect
       style="fill:#d38d5f;stroke:none;stroke-width:0.264583;stroke-opacity:0"
       id="rect2-6-55-20-32-1"
       width="1.9999999"
       height="1.9999999"
       x="176"
       y="58"
       rx="4.7961619e-15" />
    <rect
       style="fill:#d38d5f;stroke:none;stroke-width:0.264583;stroke-opacity:0"
       id="rect2-6-55-20-6-1"
       width="1.9999999"
       height="1.9999999"
       x="176"
       y="60"
       rx="4.7961619e-15" />
    <rect
       style="fill:#d38d5f;stroke:none;stroke-width:0.264583;stroke-opacity:0"
       id="rect2-6-55-20-4-0"
       width="1.9999999"
       height="1.9999999"
       x="178"
       y="58"
       rx="4.7961619e-15" />
    <rect
       style="fill:#d38d5f;stroke:none;stroke-width:0.264583;stroke-opacity:0"
       id="rect2-6-55-20-31-8"
       width="1.9999999"
       height="1.9999999"
       x="178"
       y="60"
       rx="4.7961619e-15" />
    <rect
       style="fill:#d38d5f;stroke:none;stroke-width:0.264583;stroke-opacity:0"
       id="rect2-6-55-20-26-9"
       width="1.9999999"
       height="1.9999999"
       x="180"
       y="58"
       rx="4.7961619e-15" />
    <rect
       style="fill:#d38d5f;stroke:none;stroke-width:0.264583;stroke-opacity:0"
       id="rect2-6-55-20-53-1"
       width="1.9999999"
       height="1.9999999"
       x="182"
       y="58"
       rx="4.7961619e-15" />
    <rect
       style="fill:#d38d5f;stroke:none;stroke-width:0.264583;stroke-opacity:0"
       id="rect2-6-42-0"
       width="1.9999999"
       height="1.9999999"
       x="174.00002"
       y="49.999996"
       rx="4.7961619e-15" />
    <rect
       style="fill:#d38d5f;stroke:none;stroke-width:0.264583;stroke-opacity:0"
       id="rect2-42-12-9"
       width="1.9999999"
       height="1.9999999"
       x="174.00002"
       y="51.999996"
       rx="4.7961619e-15" />
    <rect
       style="fill:#d38d5f;stroke:none;stroke-width:0.264583;stroke-opacity:0"
       id="rect2-7-77-7"
       width="1.9999999"
       height="1.9999999"
       x="174.00002"
       y="53.999996"
       rx="4.7961619e-15" />
    <rect
       style="fill:#d38d5f;stroke:none;stroke-width:0.264583;stroke-opacity:0"
       id="rect2-42-46-1"
       width="1.9999999"
       height="1.9999999"
       x="174"
       y="55.999996"
       rx="4.7961619e-15" />
    <rect
       style="fill:#d38d5f;stroke:none;stroke-width:0.264583;stroke-opacity:0"
       id="rect2-7-79-6"
       width="1.9999999"
       height="1.9999999"
       x="174"
       y="58"
       rx="4.7961619e-15" />
    <rect
       style="fill:#d38d5f;stroke:none;stroke-width:0.264583;stroke-opacity:0"
       id="rect2-65-34-7"
       width="1.9999999"
       height="1.9999999"
       x="174"
       y="60"
       rx="4.7961619e-15" />
    <rect
       style="fill:#d38d5f;stroke:none;stroke-width:0.264583;stroke-opacity:0"
       id="rect2-20-78-8"
       width="1.9999999"
       height="1.9999999"
       x="174"
       y="62"
       rx="4.7961619e-15" />
    <rect
       style="fill:#d38d5f;stroke:none;stroke-width:0.264583;stroke-opacity:0"
       id="rect2-61-3"
       width="1.9999999"
       height="1.9999999"
       x="176.00002"
       y="53.999996"
       rx="4.7961619e-15" />
    <rect
       style="fill:#d38d5f;stroke:none;stroke-width:0.264583;stroke-opacity:0"
       id="rect2-2-858-1"
       width="1.9999999"
       height="1.9999999"
       x="178.00002"
       y="53.999996"
       rx="4.7961619e-15" />
    <rect
       style="fill:#d38d5f;stroke:none;stroke-width:0.264583;stroke-opacity:0"
       id="rect2-85-73-9"
       width="1.9999999"
       height="1.9999999"
       x="178"
       y="55.999996"
       rx="4.7961619e-15" />
    <rect
       style="fill:#d38d5f;stroke:none;stroke-width:0.264583;stroke-opacity:0"
       id="rect2-87-24-5"
       width="1.9999999"
       height="1.9999999"
       x="176"
       y="55.999996"
       rx="4.7961619e-15" />
    <rect
       style="fill:#d38d5f;stroke:none;stroke-width:0.264583;stroke-opacity:0"
       id="rect2-93-9-2"
       width="1.9999999"
       height="1.9999999"
       x="180.00002"
       y="53.999996"
       rx="4.7961619e-15" />
    <rect
       style="fill:#d38d5f;stroke:none;stroke-width:0.264583;stroke-opacity:0"
       id="rect2-84-127-6"
       width="1.9999999"
       height="1.9999999"
       x="180"
       y="55.999996"
       rx="4.7961619e-15" />
    <rect
       style="fill:#d38d5f;stroke:none;stroke-width:0.264583;stroke-opacity:0"
       id="rect2-59-02-1"
       width="1.9999999"
       height="1.9999999"
       x="182.00002"
       y="53.999996"
       rx="4.7961619e-15" />
    <rect
       style="fill:#d38d5f;stroke:none;stroke-width:0.264583;stroke-opacity:0"
       id="rect2-6-41-7"
       width="1.9999999"
       height="1.9999999"
       x="184.00002"
       y="53.999996"
       rx="4.7961619e-15" />
    <rect
       style="fill:#d38d5f;stroke:none;stroke-width:0.264583;stroke-opacity:0"
       id="rect2-20-20-1"
       width="1.9999999"
       height="1.9999999"
       x="184"
       y="55.999996"
       rx="4.7961619e-15" />
    <rect
       style="fill:#d38d5f;stroke:none;stroke-width:0.264583;stroke-opacity:0"
       id="rect2-07-28-7"
       width="1.9999999"
       height="1.9999999"
       x="182"
       y="55.999996"
       rx="4.7961619e-15" />
    <rect
       style="fill:#784421;stroke:none;stroke-width:0.264583;stroke-opacity:0"
       id="rect2-6-55-20-58-77-5"
       width="1.9999999"
       height="1.9999999"
       x="174.00002"
       y="48"
       rx="4.7961619e-15" />
    <rect
       style="fill:#784421;stroke:none;stroke-width:0.264583;stroke-opacity:0"
       id="rect2-6-55-20-58-183-2"
       width="1.9999999"
       height="1.9999999"
       x="176.00002"
       y="48"
       rx="4.7961619e-15" />
    <rect
       style="fill:#784421;stroke:none;stroke-width:0.264583;stroke-opacity:0"
       id="rect2-6-55-20-58-902-1"
       width="1.9999999"
       height="1.9999999"
       x="174"
       y="64"
       rx="4.7961619e-15" />
    <rect
       style="fill:#784421;stroke:none;stroke-width:0.264583;stroke-opacity:0"
       id="rect2-6-55-20-58-784-7"
       width="1.9999999"
       height="1.9999999"
       x="176"
       y="64"
       rx="4.7961619e-15" />
    <rect
       style="fill:#784421;stroke:none;stroke-width:0.264583;stroke-opacity:0"
       id="rect2-6-55-20-58-802-5"
       width="1.9999999"
       height="1.9999999"
       x="178"
       y="64"
       rx="4.7961619e-15" />
    <rect
       style="fill:#784421;stroke:none;stroke-width:0.264583;stroke-opacity:0"
       id="rect2-6-55-20-58-350-3"
       width="1.9999999"
       height="1.9999999"
       x="178.00002"
       y="48"
       rx="4.7961619e-15" />
    <rect
       style="fill:#784421;stroke:none;stroke-width:0.264583;stroke-opacity:0"
       id="rect2-6-55-20-58-577-1"
       width="1.9999999"
       height="1.9999999"
       x="180.00002"
       y="48"
       rx="4.7961619e-15" />
    <rect
       style="fill:#784421;stroke:none;stroke-width:0.264583;stroke-opacity:0"
       id="rect2-6-55-20-58-411-0"
       width="1.9999999"
       height="1.9999999"
       x="182.00002"
       y="48"
       rx="4.7961619e-15" />
    <rect
       style="fill:#784421;stroke:none;stroke-width:0.264583;stroke-opacity:0"
       id="rect2-6-55-20-58-86-0"
       width="1.9999999"
       height="1.9999999"
       x="184"
       y="48"
       rx="4.7961619e-15" />
    <rect
       style="fill:#d38d5f;stroke:none;stroke-width:0.264583;stroke-opacity:0"
       id="rect2-6-55-20-58-64-0"
       width="1.9999999"
       height="1.9999999"
       x="182.00002"
       y="50"
       rx="4.7961619e-15" />
    <rect
       style="fill:#d38d5f;stroke:none;stroke-width:0.264583;stroke-opacity:0"
       id="rect2-6-55-20-58-862-5"
       width="1.9999999"
       height="1.9999999"
       x="184"
       y="50"
       rx="4.7961619e-15" />
    <rect
       style="fill:#784421;stroke:none;stroke-width:0.264583;stroke-opacity:0"
       id="rect2-6-55-20-58-04-0"
       width="1.9999999"
       height="1.9999999"
       x="186"
       y="48"
       rx="4.7961619e-15" />
    <rect
       style="fill:#784421;stroke:none;stroke-width:0.264583;stroke-opacity:0"
       id="rect2-6-55-20-58-481-0"
       width="1.9999999"
       height="1.9999999"
       x="188"
       y="50"
       rx="4.7961619e-15" />
    <rect
       style="fill:#784421;stroke:none;stroke-width:0.264583;stroke-opacity:0"
       id="rect2-6-55-20-58-466-7"
       width="1.9999999"
       height="1.9999999"
       x="186"
       y="50"
       rx="4.7961619e-15" />
    <rect
       style="fill:#d38d5f;stroke:none;stroke-width:0.264583;stroke-opacity:0"
       id="rect2-6-55-20-58-364-8"
       width="1.9999999"
       height="1.9999999"
       x="184"
       y="52"
       rx="4.7961619e-15" />
    <rect
       style="fill:#d38d5f;stroke:none;stroke-width:0.264583;stroke-opacity:0"
       id="rect2-6-55-20-58-103-6"
       width="1.9999999"
       height="1.9999999"
       x="186"
       y="52"
       rx="4.7961619e-15" />
    <rect
       style="fill:#784421;stroke:none;stroke-width:0.264583;stroke-opacity:0"
       id="rect2-6-55-20-58-145-4"
       width="1.9999999"
       height="1.9999999"
       x="188"
       y="52"
       rx="4.7961619e-15" />
    <rect
       style="fill:#d38d5f;stroke:none;stroke-width:0.264583;stroke-opacity:0"
       id="rect2-6-55-20-58-918-9"
       width="1.9999999"
       height="1.9999999"
       x="186"
       y="54"
       rx="4.7961619e-15" />
    <rect
       style="fill:#784421;stroke:none;stroke-width:0.264583;stroke-opacity:0"
       id="rect2-6-55-20-58-4119-1"
       width="1.9999999"
       height="1.9999999"
       x="188"
       y="54"
       rx="4.7961619e-15" />
    <rect
       style="fill:#784421;stroke:none;stroke-width:0.264583;stroke-opacity:0"
       id="rect2-6-55-20-58-320-8"
       width="1.9999999"
       height="1.9999999"
       x="187.99998"
       y="56"
       rx="4.7961619e-15" />
    <rect
       style="fill:#784421;stroke:none;stroke-width:0.264583;stroke-opacity:0"
       id="rect2-6-55-20-58-5032-9"
       width="1.9999999"
       height="1.9999999"
       x="187.99998"
       y="58"
       rx="4.7961619e-15" />
    <rect
       style="fill:#d38d5f;stroke:none;stroke-width:0.264583;stroke-opacity:0"
       id="rect2-6-55-20-58-114-9"
       width="1.9999999"
       height="1.9999999"
       x="185.99998"
       y="58"
       rx="4.7961619e-15" />
    <rect
       style="fill:#d38d5f;stroke:none;stroke-width:0.264583;stroke-opacity:0"
       id="rect2-6-55-20-58-967-7"
       width="1.9999999"
       height="1.9999999"
       x="185.99998"
       y="60"
       rx="4.7961619e-15" />
    <rect
       style="fill:#784421;stroke:none;stroke-width:0.264583;stroke-opacity:0"
       id="rect2-6-55-20-58-62-9"
       width="1.9999999"
       height="1.9999999"
       x="187.99998"
       y="60"
       rx="4.7961619e-15" />
    <rect
       style="fill:#784421;stroke:none;stroke-width:0.264583;stroke-opacity:0"
       id="rect2-6-55-20-58-196-9"
       width="1.9999999"
       height="1.9999999"
       x="187.99998"
       y="62"
       rx="4.7961619e-15" />
    <rect
       style="fill:#784421;stroke:none;stroke-width:0.264583;stroke-opacity:0"
       id="rect2-6-55-20-58-481-0-8"
       width="1.9999999"
       height="1.9999999"
       x="164"
       y="50"
       rx="4.7961619e-15" />
    <rect
       style="fill:#784421;stroke:none;stroke-width:0.264583;stroke-opacity:0"
       id="rect2-6-55-20-58-145-4-3"
       width="1.9999999"
       height="1.9999999"
       x="164"
       y="52"
       rx="4.7961619e-15" />
    <rect
       style="fill:#784421;stroke:none;stroke-width:0.264583;stroke-opacity:0"
       id="rect2-6-55-20-58-4119-1-3"
       width="1.9999999"
       height="1.9999999"
       x="164"
       y="54"
       rx="4.7961619e-15" />
    <rect
       style="fill:#784421;stroke:none;stroke-width:0.264583;stroke-opacity:0"
       id="rect2-6-55-20-58-320-8-0"
       width="1.9999999"
       height="1.9999999"
       x="163.99998"
       y="56"
       rx="4.7961619e-15" />
    <rect
       style="fill:#784421;stroke:none;stroke-width:0.264583;stroke-opacity:0"
       id="rect2-6-55-20-58-5032-9-4"
       width="1.9999999"
       height="1.9999999"
       x="163.99998"
       y="58"
       rx="4.7961619e-15" />
    <rect
       style="fill:#784421;stroke:none;stroke-width:0.264583;stroke-opacity:0"
       id="rect2-6-55-20-58-62-9-7"
       width="1.9999999"
       height="1.9999999"
       x="163.99998"
       y="60"
       rx="4.7961619e-15" />
    <rect
       style="fill:#784421;stroke:none;stroke-width:0.264583;stroke-opacity:0"
       id="rect2-6-55-20-58-196-9-4"
       width="1.9999999"
       height="1.9999999"
       x="163.99998"
       y="62"
       rx="4.7961619e-15" />
    <rect
       style="fill:#784421;stroke:none;stroke-width:0.264583;stroke-opacity:0"
       id="rect2-6-55-20-58-196-9-4-3"
       width="1.9999999"
       height="1.9999999"
       x="165.99998"
       y="62"
       rx="4.7961619e-15" />
    <rect
       style="fill:#784421;stroke:none;stroke-width:0.264583;stroke-opacity:0"
       id="rect2-6-55-20-58-196-9-4-7"
       width="1.9999999"
       height="1.9999999"
       x="166"
       y="50"
       rx="4.7961619e-15" />
    <rect
       style="fill:#784421;stroke:none;stroke-width:0.264583;stroke-opacity:0"
       id="rect2-6-55-20-58-568-9"
       width="1.9999999"
       height="1.9999999"
       x="185.99998"
       y="62"
       rx="4.7961619e-15" />
    <rect
       style="fill:#d38d5f;stroke:none;stroke-width:0.264583;stroke-opacity:0"
       id="rect2-6-55-20-58-091-6"
       width="1.9999999"
       height="1.9999999"
       x="183.99998"
       y="60"
       rx="4.7961619e-15" />
    <rect
       style="fill:#d38d5f;stroke:none;stroke-width:0.264583;stroke-opacity:0"
       id="rect2-6-55-20-58-403-0"
       width="1.9999999"
       height="1.9999999"
       x="183.99998"
       y="62"
       rx="4.7961619e-15" />
    <rect
       style="fill:#d38d5f;stroke:none;stroke-width:0.264583;stroke-opacity:0"
       id="rect2-6-55-20-58-273-6"
       width="1.9999999"
       height="1.9999999"
       x="182"
       y="62"
       rx="4.7961619e-15" />
    <rect
       style="fill:#784421;stroke:none;stroke-width:0.264583;stroke-opacity:0"
       id="rect2-6-55-20-58-736-3"
       width="1.9999999"
       height="1.9999999"
       x="180"
       y="64"
       rx="4.7961619e-15" />
    <rect
       style="fill:#d38d5f;stroke:none;stroke-width:0.264583;stroke-opacity:0"
       id="rect2-6-55-20-98-4-0"
       width="1.9999999"
       height="1.9999999"
       x="171.99998"
       y="60"
       rx="4.7961619e-15" />
    <rect
       style="fill:#d38d5f;stroke:none;stroke-width:0.264583;stroke-opacity:0"
       id="rect2-6-55-20-531-6-4"
       width="1.9999999"
       height="1.9999999"
       x="168"
       y="52"
       rx="4.7961619e-15" />
    <rect
       style="fill:#d38d5f;stroke:none;stroke-width:0.264583;stroke-opacity:0"
       id="rect2-6-55-20-17-7-4"
       width="1.9999999"
       height="1.9999999"
       x="168"
       y="50"
       rx="4.7961619e-15" />
    <rect
       style="fill:#d38d5f;stroke:none;stroke-width:0.264583;stroke-opacity:0"
       id="rect2-6-55-20-09-1-3"
       width="1.9999999"
       height="1.9999999"
       x="170"
       y="50"
       rx="4.7961619e-15" />
    <rect
       style="fill:#d38d5f;stroke:none;stroke-width:0.264583;stroke-opacity:0"
       id="rect2-6-55-20-72-8-6"
       width="1.9999999"
       height="1.9999999"
       x="170"
       y="52"
       rx="4.7961619e-15" />
    <rect
       style="fill:#d38d5f;stroke:none;stroke-width:0.264583;stroke-opacity:0"
       id="rect2-6-55-20-01-1-9"
       width="1.9999999"
       height="1.9999999"
       x="172"
       y="50"
       rx="4.7961619e-15" />
    <rect
       style="fill:#d38d5f;stroke:none;stroke-width:0.264583;stroke-opacity:0"
       id="rect2-6-55-20-18-2-1"
       width="1.9999999"
       height="1.9999999"
       x="172"
       y="52"
       rx="4.7961619e-15" />
    <rect
       style="fill:#d38d5f;stroke:none;stroke-width:0.264583;stroke-opacity:0"
       id="rect2-6-55-20-1-2-8"
       width="1.9999999"
       height="1.9999999"
       x="171.99998"
       y="62"
       rx="4.7961619e-15" />
    <rect
       style="fill:#d38d5f;stroke:none;stroke-width:0.264583;stroke-opacity:0"
       id="rect2-6-55-20-94-3-9"
       width="1.9999999"
       height="1.9999999"
       x="169.99998"
       y="62"
       rx="4.7961619e-15" />
    <rect
       style="fill:#d38d5f;stroke:none;stroke-width:0.264583;stroke-opacity:0"
       id="rect2-6-55-20-39-1-1"
       width="1.9999999"
       height="1.9999999"
       x="167.99998"
       y="62"
       rx="4.7961619e-15" />
    <rect
       style="fill:#d38d5f;stroke:none;stroke-width:0.264583;stroke-opacity:0"
       id="rect2-6-55-20-39-1-1-7"
       width="1.9999999"
       height="1.9999999"
       x="165.99998"
       y="60"
       rx="4.7961619e-15" />
    <rect
       style="fill:#d38d5f;stroke:none;stroke-width:0.264583;stroke-opacity:0"
       id="rect2-6-55-20-39-1-1-3"
       width="1.9999999"
       height="1.9999999"
       x="166"
       y="52"
       rx="4.7961619e-15" />
    <rect
       style="fill:#d38d5f;stroke:none;stroke-width:0.264583;stroke-opacity:0"
       id="rect2-6-55-20-39-1-1-9"
       width="1.9999999"
       height="1.9999999"
       x="166"
       y="54"
       rx="4.7961619e-15" />
    <rect
       style="fill:#d38d5f;stroke:none;stroke-width:0.264583;stroke-opacity:0"
       id="rect2-6-55-20-39-1-1-1"
       width="1.9999999"
       height="1.9999999"
       x="165.99998"
       y="56"
       rx="4.7961619e-15" />
    <rect
       style="fill:#d38d5f;stroke:none;stroke-width:0.264583;stroke-opacity:0"
       id="rect2-6-55-20-39-1-1-4"
       width="1.9999999"
       height="1.9999999"
       x="165.99998"
       y="58"
       rx="4.7961619e-15" />
    <rect
       style="fill:#d38d5f;stroke:none;stroke-width:0.264583;stroke-opacity:0"
       id="rect2-6-55-20-32-1-1"
       width="1.9999999"
       height="1.9999999"
       x="167.99998"
       y="58"
       rx="4.7961619e-15" />
    <rect
       style="fill:#d38d5f;stroke:none;stroke-width:0.264583;stroke-opacity:0"
       id="rect2-6-55-20-6-1-8"
       width="1.9999999"
       height="1.9999999"
       x="167.99998"
       y="60"
       rx="4.7961619e-15" />
    <rect
       style="fill:#d38d5f;stroke:none;stroke-width:0.264583;stroke-opacity:0"
       id="rect2-6-55-20-4-0-6"
       width="1.9999999"
       height="1.9999999"
       x="169.99998"
       y="58"
       rx="4.7961619e-15" />
    <rect
       style="fill:#d38d5f;stroke:none;stroke-width:0.264583;stroke-opacity:0"
       id="rect2-6-55-20-31-8-3"
       width="1.9999999"
       height="1.9999999"
       x="169.99998"
       y="60"
       rx="4.7961619e-15" />
    <rect
       style="fill:#d38d5f;stroke:none;stroke-width:0.264583;stroke-opacity:0"
       id="rect2-6-55-20-26-9-5"
       width="1.9999999"
       height="1.9999999"
       x="171.99998"
       y="58"
       rx="4.7961619e-15" />
    <rect
       style="fill:#d38d5f;stroke:none;stroke-width:0.264583;stroke-opacity:0"
       id="rect2-61-3-0"
       width="1.9999999"
       height="1.9999999"
       x="168"
       y="54"
       rx="4.7961619e-15" />
    <rect
       style="fill:#d38d5f;stroke:none;stroke-width:0.264583;stroke-opacity:0"
       id="rect2-2-858-1-0"
       width="1.9999999"
       height="1.9999999"
       x="170"
       y="54"
       rx="4.7961619e-15" />
    <rect
       style="fill:#d38d5f;stroke:none;stroke-width:0.264583;stroke-opacity:0"
       id="rect2-85-73-9-2"
       width="1.9999999"
       height="1.9999999"
       x="169.99998"
       y="56"
       rx="4.7961619e-15" />
    <rect
       style="fill:#d38d5f;stroke:none;stroke-width:0.264583;stroke-opacity:0"
       id="rect2-87-24-5-9"
       width="1.9999999"
       height="1.9999999"
       x="167.99998"
       y="56"
       rx="4.7961619e-15" />
    <rect
       style="fill:#d38d5f;stroke:none;stroke-width:0.264583;stroke-opacity:0"
       id="rect2-93-9-2-7"
       width="1.9999999"
       height="1.9999999"
       x="172"
       y="54"
       rx="4.7961619e-15" />
    <rect
       style="fill:#d38d5f;stroke:none;stroke-width:0.264583;stroke-opacity:0"
       id="rect2-84-127-6-3"
       width="1.9999999"
       height="1.9999999"
       x="171.99998"
       y="56"
       rx="4.7961619e-15" />
    <rect
       style="fill:#784421;stroke:none;stroke-width:0.264583;stroke-opacity:0"
       id="rect2-6-55-20-58-183-2-0"
       width="1.9999999"
       height="1.9999999"
       x="168"
       y="48.000004"
       rx="4.7961619e-15" />
    <rect
       style="fill:#784421;stroke:none;stroke-width:0.264583;stroke-opacity:0"
       id="rect2-6-55-20-58-784-7-5"
       width="1.9999999"
       height="1.9999999"
       x="167.99998"
       y="64"
       rx="4.7961619e-15" />
    <rect
       style="fill:#784421;stroke:none;stroke-width:0.264583;stroke-opacity:0"
       id="rect2-6-55-20-58-802-5-6"
       width="1.9999999"
       height="1.9999999"
       x="169.99998"
       y="64"
       rx="4.7961619e-15" />
    <rect
       style="fill:#784421;stroke:none;stroke-width:0.264583;stroke-opacity:0"
       id="rect2-6-55-20-58-350-3-3"
       width="1.9999999"
       height="1.9999999"
       x="170"
       y="48.000004"
       rx="4.7961619e-15" />
    <rect
       style="fill:#784421;stroke:none;stroke-width:0.264583;stroke-opacity:0"
       id="rect2-6-55-20-58-577-1-9"
       width="1.9999999"
       height="1.9999999"
       x="172"
       y="48.000004"
       rx="4.7961619e-15" />
    <rect
       style="fill:#784421;stroke:none;stroke-width:0.264583;stroke-opacity:0"
       id="rect2-6-55-20-58-736-3-7"
       width="1.9999999"
       height="1.9999999"
       x="171.99998"
       y="64"
       rx="4.7961619e-15" />
    <rect
       style="fill:#784421;stroke:none;stroke-width:0.264583;stroke-opacity:0"
       id="rect2-6-55-20-58-01-8"
       width="1.9999999"
       height="1.9999999"
       x="182"
       y="64"
       rx="4.7961619e-15" />
    <rect
       style="fill:#784421;stroke:none;stroke-width:0.264583;stroke-opacity:0"
       id="rect2-6-55-20-58-345-0"
       width="1.9999999"
       height="1.9999999"
       x="183.99998"
       y="64"
       rx="4.7961619e-15" />
    <rect
       style="fill:#784421;stroke:none;stroke-width:0.264583;stroke-opacity:0"
       id="rect2-6-55-20-58-6937-3"
       width="1.9999999"
       height="1.9999999"
       x="185.99998"
       y="64"
       rx="4.7961619e-15" />
    <rect
       style="fill:#784421;stroke:none;stroke-width:0.264583;stroke-opacity:0"
       id="rect2-6-55-20-58-196-9-4-8"
       width="1.9999999"
       height="1.9999999"
       x="166"
       y="48"
       rx="4.7961619e-15" />
    <rect
       style="fill:#784421;stroke:none;stroke-width:0.264583;stroke-opacity:0"
       id="rect2-6-55-20-58-196-9-4-1"
       width="1.9999999"
       height="1.9999999"
       x="165.99998"
       y="64"
       rx="4.7961619e-15" />
  </g>
</svg>
